<svg width="44" height="44" viewBox="0 0 44 44" fill="none" xmlns="http://www.w3.org/2000/svg">
<rect width="44" height="44" rx="22" fill="#3A3A3A"/>
<g clip-path="url(#clip0_7_2195)">
<path d="M13.003 11.5C12.2073 11.5 11.4443 11.8161 10.8817 12.3787C10.3191 12.9413 10.003 13.7044 10.003 14.5V29.5C10.003 30.2956 10.3191 31.0587 10.8817 31.6213C11.4443 32.1839 12.2073 32.5 13.003 32.5H31.003C31.7986 32.5 32.5617 32.1839 33.1243 31.6213C33.6869 31.0587 34.003 30.2956 34.003 29.5V14.5C34.003 13.7044 33.6869 12.9413 33.1243 12.3787C32.5617 11.8161 31.7986 11.5 31.003 11.5H13.003ZM31.003 13C31.4008 13 31.7823 13.158 32.0637 13.4393C32.345 13.7206 32.503 14.1022 32.503 14.5V24.25L26.8375 21.3295C26.6968 21.259 26.5376 21.2346 26.3822 21.2596C26.2269 21.2847 26.0834 21.3579 25.972 21.469L20.407 27.034L16.417 24.376C16.2729 24.2801 16.1001 24.237 15.9279 24.2539C15.7557 24.2709 15.5946 24.3468 15.472 24.469L11.503 28V14.5C11.503 14.1022 11.661 13.7206 11.9423 13.4393C12.2236 13.158 12.6052 13 13.003 13H31.003Z" fill="white"/>
</g>
<defs>
<clipPath id="clip0_7_2195">
<rect width="24" height="24" fill="white" transform="translate(10 10)"/>
</clipPath>
</defs>
</svg>
