<svg width="35" height="35" viewBox="0 0 35 35" fill="none" xmlns="http://www.w3.org/2000/svg">
<rect x="0.5" y="0.5" width="34" height="34" rx="17" stroke="black" stroke-opacity="0.1"/>
<g clip-path="url(#clip0_7_2560)">
<path d="M16.1536 21.6827V24.3957C16.1501 24.4977 16.1071 24.5943 16.0337 24.6652C15.9603 24.7361 15.8621 24.7757 15.7601 24.7757H12.9128C12.4442 24.6967 12.02 24.4509 11.7185 24.0835" stroke="black" stroke-width="1.5" stroke-linecap="round" stroke-linejoin="round"/>
<path d="M22.0545 16.6504L24.0618 15.2933C24.1066 15.2735 24.1552 15.2632 24.2043 15.2632C24.2533 15.2632 24.3019 15.2735 24.3468 15.2933C24.3992 15.2994 24.4496 15.3172 24.4942 15.3454C24.5388 15.3736 24.5765 15.4115 24.6046 15.4562L26.1653 17.7904C26.2586 17.9781 26.3071 18.1848 26.3071 18.3944C26.3071 18.6039 26.2586 18.8106 26.1653 18.9983M11.7185 24.0957C11.7185 24.0957 10.2393 22.8078 13.6728 19.3769H15.205L12.9115 15.5919H8.69482L9.8484 17.0712C9.8484 17.0712 9.07482 17.2069 9.07482 18.279C9.48089 20.4015 10.3882 22.3962 11.7213 24.0971L11.7185 24.0957Z" stroke="black" stroke-width="1.5" stroke-linecap="round" stroke-linejoin="round"/>
<path d="M13.9171 13.8154L12.085 12.974C11.9946 12.9273 11.925 12.8485 11.8898 12.753C11.8547 12.6576 11.8565 12.5524 11.895 12.4583L13.4421 9.36668C13.5455 9.18348 13.69 9.02682 13.8643 8.90906C14.0386 8.79129 14.2379 8.71565 14.4464 8.68811M26.2183 18.8613C26.2183 18.8613 25.784 20.6255 21.2946 20.2184V19.0377L18.6631 22.4835L21.1602 26.3215L21.2959 24.5165C21.2959 24.5165 21.7967 25.1272 22.6517 24.5165C24.0845 22.7968 25.2838 20.8952 26.2183 18.8613Z" stroke="black" stroke-width="1.5" stroke-linecap="round" stroke-linejoin="round"/>
<path d="M14.4451 8.68809C14.4451 8.68809 16.1144 8.68809 18.2288 12.7582L17.1295 14.1153H21.6881L23.3031 9.85388L21.4031 10.4375C21.3753 10.1432 21.2686 9.86197 21.0942 9.62335C20.9198 9.38473 20.6843 9.19759 20.4124 9.08167C19.4779 8.77223 18.4941 8.63879 17.5109 8.68809H14.4451Z" stroke="black" stroke-width="1.5" stroke-linecap="round" stroke-linejoin="round"/>
</g>
<defs>
<clipPath id="clip0_7_2560">
<rect width="19" height="19" fill="white" transform="translate(8 8)"/>
</clipPath>
</defs>
</svg>
