<svg width="100" height="100" viewBox="0 0 100 100" fill="none" xmlns="http://www.w3.org/2000/svg">
<rect width="100" height="100" rx="50" fill="white"/>
<rect x="3" y="3" width="94" height="94" rx="47" stroke="black" stroke-width="2"/>
<g clip-path="url(#clip0_7_2187)">
<path d="M47.028 60.287V67.2835C47.0189 67.5466 46.908 67.7958 46.7186 67.9787C46.5292 68.1615 46.2762 68.2636 46.013 68.2635H38.67C37.4615 68.0599 36.3675 67.4259 35.59 66.4785" stroke="black" stroke-width="2" stroke-linecap="round" stroke-linejoin="round"/>
<path d="M62.246 47.309L67.4225 43.809C67.5383 43.7579 67.6634 43.7315 67.79 43.7315C67.9166 43.7315 68.0417 43.7579 68.1575 43.809C68.2927 43.8248 68.4226 43.8707 68.5377 43.9434C68.6528 44.0161 68.7501 44.1137 68.8225 44.229L72.8475 50.249C73.088 50.733 73.2131 51.2661 73.2131 51.8065C73.2131 52.3469 73.088 52.88 72.8475 53.364M35.59 66.51C35.59 66.51 31.775 63.1885 40.63 54.3405H44.5815L38.6665 44.579H27.792L30.767 48.394C30.767 48.394 28.772 48.744 28.772 51.509C29.8192 56.9828 32.1592 62.1271 35.597 66.5135L35.59 66.51Z" stroke="black" stroke-width="2" stroke-linecap="round" stroke-linejoin="round"/>
<path d="M41.26 39.9975L36.535 37.8275C36.3019 37.7071 36.1224 37.5038 36.0317 37.2577C35.941 37.0115 35.9458 36.7403 36.045 36.4975L40.035 28.5245C40.3016 28.052 40.6743 27.648 41.1238 27.3443C41.5733 27.0406 42.0872 26.8455 42.625 26.7745M72.984 53.0105C72.984 53.0105 71.864 57.5605 60.286 56.5105V53.4655L53.4995 62.352L59.9395 72.25L60.2895 67.595C60.2895 67.595 61.581 69.17 63.786 67.595C67.4812 63.16 70.574 58.256 72.984 53.0105Z" stroke="black" stroke-width="2" stroke-linecap="round" stroke-linejoin="round"/>
<path d="M42.6215 26.7745C42.6215 26.7745 46.9265 26.7745 52.3795 37.271L49.5445 40.771H61.301L65.466 29.781L60.566 31.286C60.4942 30.5272 60.2189 29.8019 59.7692 29.1865C59.3195 28.5711 58.7121 28.0885 58.011 27.7895C55.6009 26.9915 53.0636 26.6473 50.528 26.7745H42.6215Z" stroke="black" stroke-width="2" stroke-linecap="round" stroke-linejoin="round"/>
</g>
<defs>
<clipPath id="clip0_7_2187">
<rect width="49" height="49" fill="white" transform="translate(26 25)"/>
</clipPath>
</defs>
</svg>
